<svg xmlns="http://www.w3.org/2000/svg" xmlns:xlink="http://www.w3.org/1999/xlink" width="344" height="80.317" viewBox="0 0 344 80.317">
  <defs>
    <clipPath id="clip-path">
      <rect id="Rectángulo_145" data-name="Rectángulo 145" width="344" height="80.317" fill="#424242"/>
    </clipPath>
  </defs>
  <g id="Grupo_663" data-name="Grupo 663" transform="translate(0 0)">
    <path id="Trazado_111" data-name="Trazado 111" d="M155.621,62.222V31.264H145V23.355h31.128v7.909H165.45V62.222Z" transform="translate(1.277 0.206)" fill="#424242"/>
    <rect id="Rectángulo_142" data-name="Rectángulo 142" width="9.831" height="38.867" transform="translate(184.522 23.56)" fill="#424242"/>
    <g id="Grupo_658" data-name="Grupo 658" transform="translate(0 0)">
      <g id="Grupo_657" data-name="Grupo 657" clip-path="url(#clip-path)">
        <path id="Trazado_112" data-name="Trazado 112" d="M218.278,62.677a37.2,37.2,0,0,1-7.259-.592,12.453,12.453,0,0,1-4.774-1.92,8.051,8.051,0,0,1-2.8-3.618,20.593,20.593,0,0,1-1.271-5.678q-.339-3.39-.339-8.079,0-4.632.339-8.049a20.692,20.692,0,0,1,1.271-5.707,8.24,8.24,0,0,1,2.8-3.643,11.879,11.879,0,0,1,4.774-1.921,38.952,38.952,0,0,1,7.259-.564q1.751,0,3.587.14t3.531.338a16.938,16.938,0,0,1,2.825.537v7.062q-1.752-.168-3.164-.31t-2.514-.169c-.734-.018-1.366-.029-1.893-.029a36.96,36.96,0,0,0-4.209.2,5.671,5.671,0,0,0-2.626.877,4.032,4.032,0,0,0-1.442,2,12.119,12.119,0,0,0-.565,3.559q-.085,2.232-.085,5.677,0,3.39.085,5.649a12.548,12.548,0,0,0,.565,3.617,3.888,3.888,0,0,0,1.442,2.006,5.906,5.906,0,0,0,2.626.847,37.022,37.022,0,0,0,4.209.2q1.808,0,4.011-.14t3.785-.368v7.176a27.48,27.48,0,0,1-2.966.479q-1.724.2-3.587.312t-3.616.112" transform="translate(1.778 0.202)" fill="#424242"/>
        <path id="Trazado_113" data-name="Trazado 113" d="M236.726,62.222V23.355h9.831V38.721h2.88l10.621-15.366h10.621L257.4,41.828l13.445,20.394H259.832L249.437,46.178h-2.88V62.222Z" transform="translate(2.085 0.206)" fill="#424242"/>
        <path id="Trazado_114" data-name="Trazado 114" d="M277.1,62.222V23.355h27.23v7.57h-17.4v7.966h14.744v7.457H286.932v8.3h17.4v7.57Z" transform="translate(2.44 0.206)" fill="#424242"/>
        <path id="Trazado_115" data-name="Trazado 115" d="M320.761,62.222V31.264H310.14V23.355h31.128v7.909H330.591V62.222Z" transform="translate(2.731 0.206)" fill="#424242"/>
        <path id="Trazado_116" data-name="Trazado 116" d="M112.35,49.9l12.055,13.972c-12.62,9.775-32.736,16.111-55.394,16.111-20.489,0-38.9-5.175-51.56-13.407V49.9H38.576a8.249,8.249,0,0,0,4.287-1.17,8.749,8.749,0,0,0,3-3.016,7.756,7.756,0,0,0,.6-1.281l6.507,17.856h7.253l8.353-22.91,8.353,22.91h7.3l8.867-24.342V62.288h9.493V49.9Z" transform="translate(0.154 0.335)" fill="#424242"/>
        <rect id="Rectángulo_143" data-name="Rectángulo 143" width="19.863" height="7.576" transform="translate(102.737 33.119)" fill="#424242"/>
        <rect id="Rectángulo_144" data-name="Rectángulo 144" width="19.954" height="7.576" transform="translate(17.705 33.119)" fill="#424242"/>
        <path id="Trazado_117" data-name="Trazado 117" d="M138.338,40.13c0,6.335-2.522,12.328-7.021,17.654l-6.426-7.606a8.243,8.243,0,0,0,3.248-1.11,8.692,8.692,0,0,0,3.006-3.016,8.227,8.227,0,0,0,1.15-4.247V40.7h-.02V33.119h.02V32.05a8.346,8.346,0,0,0-1.15-4.287,8.608,8.608,0,0,0-3.006-3.016,8.283,8.283,0,0,0-4.277-1.17H88.4L80.735,44.761,73,23.576H64.443L56.735,44.781,48.988,23.576H8.1V59.015C2.936,53.386,0,46.96,0,40.13,0,18.855,28.458,1.443,64.453.04v16.1h8.474V0c36.448,1.13,65.411,18.673,65.411,40.13" transform="translate(0 0)" fill="#424242"/>
      </g>
    </g>
  </g>
</svg>
