<?xml version="1.0" encoding="UTF-8"?>
<svg id="Layer_1" xmlns="http://www.w3.org/2000/svg" version="1.1" viewBox="0 0 1280 418">
  <!-- Generator: Adobe Illustrator 30.3.0, SVG Export Plug-In . SVG Version: 2.1.3 Build 182)  -->
  <defs>
    <style>
      .st0 {
        fill: #fff;
      }

      .st1 {
        fill: #d5a22b;
      }
    </style>
  </defs>
  <g>
    <path class="st0" d="M571.9,284.21l18.35-104.09h-35.71l4.69-26.59h104.66l-4.69,26.59h-35.9l-18.35,104.09h-33.05Z"/>
    <path class="st0" d="M664.78,284.21l23.04-130.68h33.05l-23.04,130.68h-33.05Z"/>
    <path class="st0" d="M783.97,285.73c-9.75,0-17.77-.66-24.06-1.99s-11.26-3.48-14.91-6.46c-3.65-2.98-6.07-7.03-7.26-12.16-1.18-5.13-1.49-11.49-.91-19.09.58-7.6,1.8-16.65,3.65-27.16,1.83-10.38,3.8-19.4,5.91-27.06s4.66-14.06,7.66-19.18c2.99-5.13,6.85-9.21,11.56-12.25s10.44-5.19,17.19-6.46c6.74-1.27,14.99-1.9,24.74-1.9,3.92,0,7.92.16,11.98.47,4.06.32,7.95.7,11.67,1.14,3.72.45,6.78,1.04,9.18,1.8l-4.19,23.74c-3.86-.38-7.34-.73-10.45-1.04-3.11-.32-5.89-.51-8.35-.57-2.46-.06-4.58-.1-6.35-.1-5.7,0-10.46.22-14.27.67s-6.93,1.42-9.35,2.94-4.44,3.77-6.03,6.74c-1.6,2.98-2.94,6.97-4.01,11.97-1.07,5.01-2.29,11.37-3.65,19.09-1.34,7.6-2.36,13.93-3.06,18.99-.7,5.07-.79,9.12-.24,12.16.54,3.04,1.75,5.29,3.66,6.74,1.89,1.46,4.67,2.41,8.33,2.85,3.66.45,8.33.67,14.03.67,4.05,0,8.57-.16,13.57-.47,4.99-.32,9.31-.73,12.94-1.23l-4.25,24.12c-2.9.63-6.32,1.17-10.26,1.61-3.94.44-8.02.79-12.24,1.04s-8.3.38-12.22.38h-.01Z"/>
    <path class="st0" d="M847.3,284.21l23.04-130.68h33.05l-9.11,51.66h9.68l44.82-51.66h35.71l-55.59,62.11,33.12,68.57h-37.04l-25.44-53.94h-9.68l-9.51,53.94h-33.05Z"/>
    <path class="st0" d="M984.24,284.21l23.04-130.68h91.55l-4.49,25.45h-58.5l-4.72,26.78h49.57l-4.42,25.07h-49.57l-4.92,27.92h58.5l-4.49,25.45h-91.55Z"/>
    <path class="st0" d="M1132.01,284.21l18.35-104.09h-35.71l4.69-26.59h104.66l-4.69,26.59h-35.9l-18.35,104.09h-33.05Z"/>
  </g>
  <g>
    <rect class="st1" x="115.46" y="185.72" width="66.95" height="25.47"/>
    <path class="st1" d="M301.29,74.48v52.27h-28.69v-52.13c-120.98,4.71-216.6,63.29-216.6,134.79s104.09,135.13,232.5,135.13,232.5-60.51,232.5-135.13-97.24-131.06-219.72-134.92h.01ZM496.72,229.21c-2.48,4.17-5.87,7.56-10.11,10.14-3.36,2-7.02,3.26-10.92,3.73l14.41,17.06c-6,8.04-13.36,15.64-21.94,22.72l-34.12-39.58h-32.83v41.65h-31.92v-81.84l-29.81,81.84h-24.56l-28.08-77.03-28.08,77.03h-24.39l-21.88-60.03c-.54,1.49-1.19,2.92-2,4.31-2.48,4.17-5.87,7.56-10.07,10.14-4.38,2.61-9.23,3.93-14.41,3.93h-71.02v44.4c-13.33-9.97-24.15-21.1-31.95-33.1v-100.94h137.47l26.05,71.29,25.91-71.29h28.76l26.02,71.23,25.78-71.23h119.22c5.19,0,10.04,1.36,14.38,3.93,2.44,1.46,4.58,3.19,6.44,5.22,1.39,1.49,2.61,3.12,3.66,4.92,1.05,1.73,1.86,3.6,2.48,5.56.92,2.78,1.39,5.8,1.39,8.85l-.03,33.58c-.1,4.88-1.42,9.39-3.83,13.5h-.02Z"/>
    <rect class="st1" x="401.21" y="185.72" width="66.92" height="25.47"/>
  </g>
</svg>