<svg xmlns="http://www.w3.org/2000/svg" xmlns:xlink="http://www.w3.org/1999/xlink" width="145.743" height="42.898" viewBox="0 0 145.743 42.898">
  <defs>
    <clipPath id="clip-path">
      <rect id="Rectángulo_46" data-name="Rectángulo 46" width="145.743" height="42.898" fill="none"/>
    </clipPath>
  </defs>
  <g id="Grupo_24" data-name="Grupo 24" transform="translate(0)">
    <g id="Grupo_23" data-name="Grupo 23" transform="translate(0 0)" clip-path="url(#clip-path)">
      <path id="Trazado_9" data-name="Trazado 9" d="M140.525,42.623H5.752A4.944,4.944,0,0,1,.808,37.68V5.752A4.944,4.944,0,0,1,5.752.807H140.525a4.944,4.944,0,0,1,4.944,4.945V37.68a4.944,4.944,0,0,1-4.944,4.944" transform="translate(-0.267 -0.266)"/>
      <path id="Trazado_10" data-name="Trazado 10" d="M140.258,42.9H5.484A5.491,5.491,0,0,1,0,37.413V5.485A5.491,5.491,0,0,1,5.484,0H140.258a5.491,5.491,0,0,1,5.485,5.485V37.413a5.491,5.491,0,0,1-5.485,5.485M5.484,1.082a4.408,4.408,0,0,0-4.4,4.4V37.413a4.408,4.408,0,0,0,4.4,4.4H140.258a4.408,4.408,0,0,0,4.4-4.4V5.485a4.408,4.408,0,0,0-4.4-4.4Z" transform="translate(0 0)" fill="#96999c"/>
      <path id="Trazado_11" data-name="Trazado 11" d="M71.5,15.725l-.607,2H69.561l2.258-7.046H73.46l2.289,7.046H74.37l-.638-2Zm2.018-.972-.555-1.735c-.135-.429-.25-.909-.354-1.317h-.022c-.1.408-.209.9-.334,1.317L71.7,14.752Z" transform="translate(-22.974 -3.525)" fill="#fff"/>
      <path id="Trazado_12" data-name="Trazado 12" d="M80.985,13.594l.826,2.582c.147.449.25.857.345,1.275h.031c.094-.418.209-.816.345-1.275l.815-2.582H84.7l-1.944,5.091H81.487L79.6,13.594Z" transform="translate(-26.288 -4.49)" fill="#fff"/>
      <path id="Trazado_13" data-name="Trazado 13" d="M92.751,17.406a6.838,6.838,0,0,0,.084,1.223H91.674l-.094-.564h-.031a1.862,1.862,0,0,1-1.506.679,1.511,1.511,0,0,1-1.6-1.516c0-1.276,1.14-1.934,3.021-1.923v-.084c0-.335-.136-.889-1.035-.889a2.7,2.7,0,0,0-1.37.376l-.251-.836a3.67,3.67,0,0,1,1.84-.449,1.907,1.907,0,0,1,2.1,2.153ZM91.5,16.141c-.91-.011-1.777.178-1.777.952a.675.675,0,0,0,.732.731,1.055,1.055,0,0,0,1.014-.7.861.861,0,0,0,.031-.282Z" transform="translate(-29.211 -4.433)" fill="#fff"/>
      <path id="Trazado_14" data-name="Trazado 14" d="M98.191,11.816a.728.728,0,1,1,.011,0Zm-.638.732h1.286V17.64H97.553Z" transform="translate(-32.195 -3.443)" fill="#fff"/>
      <rect id="Rectángulo_44" data-name="Rectángulo 44" width="1.286" height="7.433" transform="translate(68.494 6.763)" fill="#fff"/>
      <path id="Trazado_15" data-name="Trazado 15" d="M110.745,17.406a6.909,6.909,0,0,0,.083,1.223h-1.16l-.094-.564h-.031a1.861,1.861,0,0,1-1.506.679,1.511,1.511,0,0,1-1.6-1.516c0-1.276,1.14-1.934,3.021-1.923v-.084c0-.335-.135-.889-1.035-.889a2.7,2.7,0,0,0-1.37.376l-.25-.836a3.668,3.668,0,0,1,1.84-.449,1.907,1.907,0,0,1,2.1,2.153Zm-1.255-1.265c-.909-.011-1.777.178-1.777.952a.674.674,0,0,0,.731.731,1.054,1.054,0,0,0,1.014-.7.861.861,0,0,0,.031-.282Z" transform="translate(-35.153 -4.433)" fill="#fff"/>
      <path id="Trazado_16" data-name="Trazado 16" d="M115.562,10.1h1.287V13.14h.021a1.843,1.843,0,0,1,1.631-.815c1.244,0,2.132,1.035,2.122,2.582a2.438,2.438,0,0,1-2.31,2.739,1.752,1.752,0,0,1-1.61-.878h-.021l-.063.763h-1.1c.02-.346.041-.909.041-1.422Zm1.287,5.332a1.479,1.479,0,0,0,.031.3,1.176,1.176,0,0,0,1.139.9c.805,0,1.3-.638,1.3-1.672,0-.9-.429-1.631-1.286-1.631a1.2,1.2,0,0,0-1.141.941,1.588,1.588,0,0,0-.041.334Z" transform="translate(-38.153 -3.335)" fill="#fff"/>
      <rect id="Rectángulo_45" data-name="Rectángulo 45" width="1.286" height="7.433" transform="translate(83.982 6.763)" fill="#fff"/>
      <path id="Trazado_17" data-name="Trazado 17" d="M130.844,16.444a1.383,1.383,0,0,0,1.568,1.317,4.094,4.094,0,0,0,1.411-.23l.19.878a4.582,4.582,0,0,1-1.778.324,2.409,2.409,0,0,1-2.625-2.572,2.522,2.522,0,0,1,2.489-2.739,2.214,2.214,0,0,1,2.2,2.478,3.262,3.262,0,0,1-.042.544Zm2.238-.9a1.1,1.1,0,0,0-1.056-1.244,1.258,1.258,0,0,0-1.181,1.244Z" transform="translate(-42.807 -4.433)" fill="#fff"/>
      <path id="Trazado_18" data-name="Trazado 18" d="M144.819,18.745a2.462,2.462,0,0,1-2.552-2.624,2.514,2.514,0,0,1,2.635-2.7,2.443,2.443,0,0,1,2.53,2.614,2.52,2.52,0,0,1-2.6,2.708Zm.042-.931c.731,0,1.244-.711,1.244-1.745,0-.795-.356-1.715-1.233-1.715-.91,0-1.276.889-1.276,1.736,0,.982.492,1.725,1.255,1.725Z" transform="translate(-46.987 -4.433)" fill="#fff"/>
      <path id="Trazado_19" data-name="Trazado 19" d="M152.219,15.054c0-.585-.021-1.077-.042-1.516H153.3l.063.763h.031a1.87,1.87,0,0,1,1.631-.878c.888,0,1.808.575,1.808,2.185v3.021h-1.286V15.754c0-.732-.272-1.286-.972-1.286a1.078,1.078,0,0,0-1,.753,1.182,1.182,0,0,0-.063.407v3h-1.286Z" transform="translate(-50.26 -4.433)" fill="#fff"/>
      <path id="Trazado_20" data-name="Trazado 20" d="M166.99,11.643V12.95h1.223v.962H166.99v2.238c0,.628.167.941.658.941a1.683,1.683,0,0,0,.5-.052l.021.972a2.809,2.809,0,0,1-.931.137,1.472,1.472,0,0,1-1.108-.419,2.005,2.005,0,0,1-.408-1.433V13.911H165V12.95h.721V12Z" transform="translate(-54.496 -3.845)" fill="#fff"/>
      <path id="Trazado_21" data-name="Trazado 21" d="M171.934,10.1h1.286V13.13h.021a1.691,1.691,0,0,1,.638-.575,1.812,1.812,0,0,1,.889-.23c.867,0,1.777.575,1.777,2.206v3h-1.286V14.667c0-.732-.272-1.3-.983-1.3a1.072,1.072,0,0,0-1,.721,1.165,1.165,0,0,0-.052.387v3.053h-1.286Z" transform="translate(-56.785 -3.335)" fill="#fff"/>
      <path id="Trazado_22" data-name="Trazado 22" d="M182.3,16.444a1.383,1.383,0,0,0,1.568,1.317,4.094,4.094,0,0,0,1.411-.23l.189.878a4.576,4.576,0,0,1-1.777.324,2.409,2.409,0,0,1-2.625-2.572,2.522,2.522,0,0,1,2.489-2.739,2.214,2.214,0,0,1,2.2,2.478,3.262,3.262,0,0,1-.042.544Zm2.237-.9a1.094,1.094,0,0,0-1.056-1.244,1.258,1.258,0,0,0-1.181,1.244Z" transform="translate(-59.8 -4.433)" fill="#fff"/>
      <path id="Trazado_23" data-name="Trazado 23" d="M39.315,27.445A6.27,6.27,0,0,1,42.3,22.182a6.422,6.422,0,0,0-5.06-2.737c-2.128-.223-4.193,1.276-5.275,1.276-1.106,0-2.779-1.253-4.576-1.217a6.741,6.741,0,0,0-5.671,3.459C19.27,27.209,21.1,33.446,23.446,36.88c1.176,1.68,2.549,3.556,4.346,3.489,1.758-.073,2.414-1.12,4.537-1.12,2.1,0,2.72,1.12,4.553,1.078,1.887-.031,3.074-1.688,4.208-3.384a13.815,13.815,0,0,0,1.925-3.921,6.061,6.061,0,0,1-3.7-5.577" transform="translate(-6.789 -6.415)" fill="#fff"/>
      <path id="Trazado_24" data-name="Trazado 24" d="M41.355,13.906a6.161,6.161,0,0,0,1.412-4.425,6.282,6.282,0,0,0-4.064,2.1,5.873,5.873,0,0,0-1.451,4.261,5.194,5.194,0,0,0,4.1-1.94" transform="translate(-12.292 -3.131)" fill="#fff"/>
      <path id="Trazado_25" data-name="Trazado 25" d="M80.534,43.2H78.085l-1.343-4.219H72.08L70.8,43.2H68.415l4.624-14.358h2.852Zm-4.2-5.988-1.213-3.749q-.195-.573-.725-2.7h-.043q-.214.917-.683,2.7l-1.193,3.749Z" transform="translate(-22.596 -9.527)" fill="#fff"/>
      <path id="Trazado_26" data-name="Trazado 26" d="M99.343,39.768a5.884,5.884,0,0,1-1.428,4.175,4.171,4.171,0,0,1-3.173,1.363,3.178,3.178,0,0,1-2.941-1.47h-.041v5.453h-2.3V38.128q0-1.661-.085-3.408H91.4l.129,1.641h.044a4.091,4.091,0,0,1,6.549-.4,5.709,5.709,0,0,1,1.225,3.812M97,39.853a4.278,4.278,0,0,0-.681-2.493,2.359,2.359,0,0,0-2-1.023,2.388,2.388,0,0,0-1.544.565,2.625,2.625,0,0,0-.905,1.483,2.97,2.97,0,0,0-.106.7v1.727a2.764,2.764,0,0,0,.69,1.905,2.3,2.3,0,0,0,1.8.777,2.347,2.347,0,0,0,2.023-1A4.4,4.4,0,0,0,97,39.853" transform="translate(-29.518 -11.397)" fill="#fff"/>
      <path id="Trazado_27" data-name="Trazado 27" d="M117.122,39.768a5.881,5.881,0,0,1-1.428,4.175,4.169,4.169,0,0,1-3.173,1.363,3.174,3.174,0,0,1-2.938-1.47h-.043v5.453h-2.3V38.128q0-1.661-.085-3.408h2.023l.129,1.641h.044a4.09,4.09,0,0,1,6.549-.4,5.708,5.708,0,0,1,1.223,3.812m-2.341.084a4.264,4.264,0,0,0-.683-2.493,2.356,2.356,0,0,0-2-1.023,2.391,2.391,0,0,0-1.545.565,2.622,2.622,0,0,0-.9,1.483,2.887,2.887,0,0,0-.108.7v1.727a2.755,2.755,0,0,0,.691,1.905,2.291,2.291,0,0,0,1.8.777,2.35,2.35,0,0,0,2.023-1,4.419,4.419,0,0,0,.725-2.642" transform="translate(-35.39 -11.397)" fill="#fff"/>
      <path id="Trazado_28" data-name="Trazado 28" d="M137.524,39.071a3.821,3.821,0,0,1-1.277,2.982,5.648,5.648,0,0,1-3.909,1.256,6.86,6.86,0,0,1-3.722-.894l.533-1.917a6.308,6.308,0,0,0,3.327.915,3.148,3.148,0,0,0,2.025-.585,1.919,1.919,0,0,0,.723-1.569,2.006,2.006,0,0,0-.6-1.472,5.555,5.555,0,0,0-1.984-1.11q-3.77-1.408-3.768-4.117a3.639,3.639,0,0,1,1.32-2.9,5.212,5.212,0,0,1,3.515-1.133,6.972,6.972,0,0,1,3.258.682l-.574,1.875a5.669,5.669,0,0,0-2.749-.66,2.772,2.772,0,0,0-1.894.6,1.71,1.71,0,0,0-.575,1.3,1.75,1.75,0,0,0,.659,1.405,7.436,7.436,0,0,0,2.088,1.109,7.094,7.094,0,0,1,2.726,1.745,3.662,3.662,0,0,1,.873,2.493" transform="translate(-42.478 -9.421)" fill="#fff"/>
      <path id="Trazado_29" data-name="Trazado 29" d="M150.161,35.279h-2.535v5.027q0,1.918,1.343,1.917a4.177,4.177,0,0,0,1.021-.105l.063,1.746a5.167,5.167,0,0,1-1.788.255,2.756,2.756,0,0,1-2.13-.829,4.08,4.08,0,0,1-.767-2.791V35.279h-1.512V33.552h1.512V31.658l2.258-.683v2.577h2.535Z" transform="translate(-47.512 -10.23)" fill="#fff"/>
      <path id="Trazado_30" data-name="Trazado 30" d="M165.352,39.811a5.68,5.68,0,0,1-1.363,3.92,4.867,4.867,0,0,1-3.791,1.575,4.627,4.627,0,0,1-3.632-1.512,5.5,5.5,0,0,1-1.353-3.811,5.617,5.617,0,0,1,1.4-3.941,4.82,4.82,0,0,1,3.758-1.536,4.732,4.732,0,0,1,3.665,1.513,5.456,5.456,0,0,1,1.321,3.791m-2.387.074a4.658,4.658,0,0,0-.618-2.456,2.27,2.27,0,0,0-2.065-1.24,2.3,2.3,0,0,0-2.109,1.24,4.753,4.753,0,0,0-.615,2.5,4.659,4.659,0,0,0,.615,2.455,2.321,2.321,0,0,0,2.09,1.239,2.3,2.3,0,0,0,2.063-1.26,4.66,4.66,0,0,0,.639-2.478" transform="translate(-51.263 -11.397)" fill="#fff"/>
      <path id="Trazado_31" data-name="Trazado 31" d="M178.783,36.743a4.079,4.079,0,0,0-.723-.063,2.182,2.182,0,0,0-1.877.917,3.454,3.454,0,0,0-.574,2.043v5.432h-2.3l.019-7.092q0-1.79-.084-3.26h2l.084,1.982h.062a3.545,3.545,0,0,1,1.151-1.64,2.784,2.784,0,0,1,1.663-.555,3.788,3.788,0,0,1,.574.041Z" transform="translate(-57.218 -11.397)" fill="#fff"/>
      <path id="Trazado_32" data-name="Trazado 32" d="M192.337,39.4a5.542,5.542,0,0,1-.083,1.044h-6.9a3.009,3.009,0,0,0,1,2.345,3.416,3.416,0,0,0,2.259.721,7.647,7.647,0,0,0,2.789-.489l.361,1.6a8.653,8.653,0,0,1-3.473.64,5.021,5.021,0,0,1-3.78-1.418,5.238,5.238,0,0,1-1.374-3.8,5.939,5.939,0,0,1,1.279-3.9,4.407,4.407,0,0,1,3.619-1.66,3.864,3.864,0,0,1,3.391,1.66,5.607,5.607,0,0,1,.911,3.26m-2.193-.6a3.116,3.116,0,0,0-.445-1.767,2.014,2.014,0,0,0-1.834-.959,2.187,2.187,0,0,0-1.83.938,3.405,3.405,0,0,0-.68,1.788Z" transform="translate(-60.485 -11.386)" fill="#fff"/>
    </g>
  </g>
</svg>
