<?xml version="1.0" encoding="UTF-8"?>
<svg id="Capa_1" xmlns="http://www.w3.org/2000/svg" version="1.1" viewBox="0 0 131.1 131.11">
  <!-- Generator: Adobe Illustrator 30.1.0, SVG Export Plug-In . SVG Version: 2.1.1 Build 136)  -->
  <defs>
    <style>
      .st0 {
        fill: #fff;
      }
    </style>
  </defs>
  <path class="st0" d="M113.67,1.37c.06.16.23.22.49.27,7.83,1.45,13.83,7.44,15.28,15.27.05.27.11.44.27.5v96.26c-.16.05-.22.23-.27.48-1.53,8.15-7.7,14.01-15.99,15.49l-32.88.09v-45.39s19.06,0,19.06,0l3.75-22.55h-22.8s0-15.31,0-15.31h22.82s0-22.56,0-22.56l-22.98.02c-12.35.16-22.24,10.04-22.38,22.38l-.02,15.46h-15.04s0,22.56,0,22.56h15.05s0,45.39,0,45.39l-40.38-.08c-8.63-1.54-14.61-7.61-16.25-16.22V17.64C2.97,9.35,8.76,3.14,16.93,1.65c.25-.05.42-.13.48-.28h96.26Z"/>
</svg>