<svg xmlns="http://www.w3.org/2000/svg" xmlns:xlink="http://www.w3.org/1999/xlink" width="145.743" height="42.898" viewBox="0 0 145.743 42.898">
  <defs>
    <clipPath id="clip-path">
      <rect id="Rectángulo_47" data-name="Rectángulo 47" width="145.743" height="42.898" fill="none"/>
    </clipPath>
    <clipPath id="clip-path-2">
      <path id="Trazado_37" data-name="Trazado 37" d="M37,29.785V30.1l4.445,4.446.1-.058L46.811,31.5c1.5-.855,1.5-2.253,0-3.108L41.546,25.4l-.1-.057Z" transform="translate(-36.999 -25.339)" fill="#fad849"/>
    </clipPath>
    <clipPath id="clip-path-3">
      <path id="Trazado_38" data-name="Trazado 38" d="M16.971,45.625a1.75,1.75,0,0,0,2.237.066L34.93,36.758l-4.546-4.546Z" transform="translate(-16.971 -32.212)" fill="#d84f53"/>
    </clipPath>
    <clipPath id="clip-path-4">
      <path id="Trazado_39" data-name="Trazado 39" d="M16.971,11.972,30.384,25.386l4.547-4.546L19.208,11.907A2.472,2.472,0,0,0,18,11.545a1.379,1.379,0,0,0-1.031.427" transform="translate(-16.971 -11.545)" fill="#85bf73"/>
    </clipPath>
  </defs>
  <g id="Grupo_35" data-name="Grupo 35" transform="translate(0)">
    <g id="Grupo_26" data-name="Grupo 26" transform="translate(0 0)">
      <g id="Grupo_25" data-name="Grupo 25" clip-path="url(#clip-path)">
        <path id="Trazado_33" data-name="Trazado 33" d="M140.525,42.624H5.752A4.944,4.944,0,0,1,.808,37.681V5.753A4.944,4.944,0,0,1,5.752.808H140.525a4.944,4.944,0,0,1,4.944,4.945V37.681a4.944,4.944,0,0,1-4.944,4.944" transform="translate(-0.267 -0.267)"/>
        <path id="Trazado_34" data-name="Trazado 34" d="M140.258,42.9H5.484A5.491,5.491,0,0,1,0,37.413V5.485A5.491,5.491,0,0,1,5.484,0H140.258a5.491,5.491,0,0,1,5.485,5.485V37.413a5.491,5.491,0,0,1-5.485,5.485M5.484,1.082a4.408,4.408,0,0,0-4.4,4.4V37.413a4.408,4.408,0,0,0,4.4,4.4H140.258a4.408,4.408,0,0,0,4.4-4.4V5.485a4.408,4.408,0,0,0-4.4-4.4Z" transform="translate(0 0)" fill="#96999c"/>
        <path id="Trazado_35" data-name="Trazado 35" d="M95.383,32.531a4.581,4.581,0,1,0,4.6,4.581,4.516,4.516,0,0,0-4.6-4.581m0,7.358a2.784,2.784,0,1,1,2.586-2.777,2.65,2.65,0,0,1-2.586,2.777M85.352,32.531a4.581,4.581,0,1,0,4.6,4.581,4.516,4.516,0,0,0-4.6-4.581m0,7.358a2.784,2.784,0,1,1,2.585-2.777,2.65,2.65,0,0,1-2.585,2.777M73.418,33.936v1.944h4.651a4.051,4.051,0,0,1-1.059,2.447,4.759,4.759,0,0,1-3.592,1.423,5.172,5.172,0,0,1,0-10.343,4.957,4.957,0,0,1,3.505,1.388l1.371-1.371a6.78,6.78,0,0,0-4.876-1.961,7.116,7.116,0,1,0,0,14.23,6.5,6.5,0,0,0,4.963-2,6.421,6.421,0,0,0,1.684-4.547,6.322,6.322,0,0,0-.1-1.215Zm48.8,1.51a4.257,4.257,0,0,0-3.922-2.915,4.354,4.354,0,0,0-4.321,4.581,4.484,4.484,0,0,0,4.547,4.582,4.558,4.558,0,0,0,3.818-2.031l-1.562-1.041a2.617,2.617,0,0,1-2.256,1.266A2.331,2.331,0,0,1,116.3,38.5l6.126-2.534Zm-6.247,1.527A2.513,2.513,0,0,1,118.37,34.3a1.772,1.772,0,0,1,1.7.972Zm-4.981,4.442h2.013V27.949h-2.013Zm-3.3-7.861h-.069a3.176,3.176,0,0,0-2.412-1.023,4.585,4.585,0,0,0,0,9.163,3.125,3.125,0,0,0,2.412-1.041h.069v.66c0,1.753-.937,2.69-2.447,2.69a2.534,2.534,0,0,1-2.308-1.631l-1.753.729a4.367,4.367,0,0,0,4.061,2.707c2.36,0,4.356-1.388,4.356-4.772V32.808H107.7Zm-2.308,6.334a2.787,2.787,0,0,1,0-5.553,2.582,2.582,0,0,1,2.447,2.794,2.56,2.56,0,0,1-2.447,2.759m26.263-11.939h-4.816V41.415h2.009v-5.1h2.807a4.188,4.188,0,1,0,0-8.364m.052,6.49h-2.859V29.824H131.7a2.308,2.308,0,1,1,0,4.616m12.421-1.934a3.774,3.774,0,0,0-3.586,2.062l1.785.745a1.9,1.9,0,0,1,1.836-.987,1.934,1.934,0,0,1,2.114,1.732V36.2a4.448,4.448,0,0,0-2.1-.52c-1.923,0-3.88,1.057-3.88,3.032a3.111,3.111,0,0,0,3.343,2.963,2.836,2.836,0,0,0,2.564-1.317h.069v1.039h1.941V36.23c0-2.391-1.785-3.725-4.089-3.725m-.242,7.38c-.658,0-1.577-.329-1.577-1.143,0-1.039,1.143-1.438,2.13-1.438a3.578,3.578,0,0,1,1.836.45,2.436,2.436,0,0,1-2.39,2.131m11.4-7.086-2.3,5.839h-.069L150.518,32.8h-2.165l3.586,8.16L149.894,45.5h2.1l5.527-12.7Zm-18.1,8.615h2.01V27.949h-2.01Z" transform="translate(-21.863 -9.07)" fill="#fff"/>
        <path id="Trazado_36" data-name="Trazado 36" d="M16.725,12.145a2.153,2.153,0,0,0-.5,1.512v23.8a2.152,2.152,0,0,0,.5,1.512l.08.078L30.139,25.716V25.4L16.8,12.067Z" transform="translate(-5.359 -3.985)" fill="#77c8f0"/>
      </g>
    </g>
    <g id="Grupo_28" data-name="Grupo 28" transform="translate(24.779 16.97)">
      <g id="Grupo_27" data-name="Grupo 27" clip-path="url(#clip-path-2)">
        <rect id="Rectángulo_48" data-name="Rectángulo 48" width="11.316" height="9.207" transform="translate(0 0)" fill="#fad849"/>
      </g>
    </g>
    <g id="Grupo_30" data-name="Grupo 30" transform="translate(11.366 21.573)">
      <g id="Grupo_29" data-name="Grupo 29" clip-path="url(#clip-path-3)">
        <rect id="Rectángulo_49" data-name="Rectángulo 49" width="22.602" height="22.602" transform="translate(-7.002 7.002) rotate(-45)" fill="#d84f53"/>
      </g>
    </g>
    <g id="Grupo_32" data-name="Grupo 32" transform="translate(11.366 7.732)">
      <g id="Grupo_31" data-name="Grupo 31" clip-path="url(#clip-path-4)">
        <rect id="Rectángulo_50" data-name="Rectángulo 50" width="22.487" height="22.487" transform="translate(-6.921 6.921) rotate(-45)" fill="#85bf73"/>
      </g>
    </g>
    <g id="Grupo_34" data-name="Grupo 34" transform="translate(0 0)">
      <g id="Grupo_33" data-name="Grupo 33" clip-path="url(#clip-path)">
        <path id="Trazado_40" data-name="Trazado 40" d="M71.594,12.626a2.3,2.3,0,0,0-1.526-.589,2.434,2.434,0,0,0,0,4.866,1.839,1.839,0,0,0,2.023-1.711h-1.8v-.745h2.777c0,2.226-1.186,3.274-3,3.274a3.252,3.252,0,0,1,0-6.5,3.134,3.134,0,0,1,2.142.837Z" transform="translate(-22.084 -3.705)" fill="#fff"/>
        <path id="Trazado_41" data-name="Trazado 41" d="M81.621,11.329v.8h-2.9v2.024h2.53v.8h-2.53v1.913h2.989v.8H77.869V11.329Z" transform="translate(-25.718 -3.742)" fill="#fff"/>
        <path id="Trazado_42" data-name="Trazado 42" d="M89.431,11.329v.809H87.509v5.528h-.865V12.138H84.722v-.809Z" transform="translate(-27.982 -3.742)" fill="#fff"/>
        <rect id="Rectángulo_51" data-name="Rectángulo 51" width="0.855" height="6.337" transform="translate(64.698 7.587)" fill="#fff"/>
        <path id="Trazado_43" data-name="Trazado 43" d="M104.265,11.329v.809h-1.922v5.528h-.865V12.138H99.556v-.809Z" transform="translate(-32.881 -3.742)" fill="#fff"/>
        <path id="Trazado_44" data-name="Trazado 44" d="M114.02,11.218a3.252,3.252,0,1,1-3.2,3.257,3.214,3.214,0,0,1,3.2-3.257m0,5.675a2.425,2.425,0,1,0-2.345-2.418,2.362,2.362,0,0,0,2.345,2.418" transform="translate(-36.601 -3.705)" fill="#fff"/>
        <path id="Trazado_45" data-name="Trazado 45" d="M126.114,17.666l-2.888-4.773v4.773h-.855V11.329h.847l2.86,4.736V11.329h.856v6.337Z" transform="translate(-40.416 -3.742)" fill="#fff"/>
      </g>
    </g>
  </g>
</svg>
