<?xml version="1.0" encoding="UTF-8"?>
<svg id="Capa_1" xmlns="http://www.w3.org/2000/svg" version="1.1" viewBox="0 0 131.1 131.11">
  <!-- Generator: Adobe Illustrator 30.1.0, SVG Export Plug-In . SVG Version: 2.1.1 Build 136)  -->
  <defs>
    <style>
      .st0 {
        fill: #fff;
      }
    </style>
  </defs>
  <path class="st0" d="M88.53.9c.25.47,3.35.15,5.19.35,3.81.43,7.36.88,11.06,1.9,11.29,3.14,20.11,11.71,23.28,23.03,1.28,3.7,1.42,7.31,2.14,11.27l-.13,55.46c0,4.21-1.07,8.05-2.01,11.99-3.25,11.2-11.74,19.67-22.9,22.97-3.99,1.18-7.9,1.65-12.07,2.02-1.53.14-2.92-.11-4.48.32h-45.63c-1.56-.43-2.95-.2-4.48-.32-4.26-.35-8.22-.87-12.29-2.07-11.37-3.35-19.91-12.17-22.97-23.63-1.32-4.95-1.95-9.83-1.99-15.01l-.15-21.58c0-.29,0-.53-.23-.51v-3.03c0-7.1-.04-14.33.38-21.58l.24-4.19c.25-4.33.86-8.36,2.11-12.49C6.9,14.87,15.3,6.55,26.22,3.32c3.8-1.12,7.47-1.6,11.41-2.08,1.78-.22,3.58.22,5.19-.33h45.72ZM78.92,118.55c5.29,0,10.3-.12,15.51-.51,3.01-.23,5.81-.75,8.66-1.73,6.51-2.25,11.43-7.3,13.57-13.85.92-2.83,1.41-5.59,1.62-8.56.36-5.2.49-10.19.49-15.46v-25.99c0-5.33-.11-10.38-.54-15.67-1.17-14.27-9.08-22.34-23.38-23.52-5.62-.47-11-.56-16.67-.56h-24.73c-5.66,0-11.05.1-16.65.57-14.08,1.18-22.12,9.13-23.33,23.26-.47,5.46-.56,10.67-.56,16.18v25.49c0,5.32.12,10.37.47,15.65.2,3.01.7,5.76,1.6,8.6,2.17,6.84,7.44,12.04,14.31,14.13,2.69.82,5.29,1.31,8.1,1.51,5.23.37,10.26.49,15.57.49h25.99Z"/>
  <path class="st0" d="M63.28,32.46c18.46-1.41,34.28,12.51,35.64,30.62,1.37,18.26-12.33,34.21-30.55,35.62-18.22,1.41-34.17-12.19-35.69-30.37-1.52-18.21,12.07-34.45,30.6-35.87ZM63.78,44.13c-12.08,1.15-20.65,11.93-19.42,23.69,1.23,11.72,11.74,20.33,23.5,19.2,11.77-1.13,20.51-11.66,19.38-23.48-1.11-11.63-11.45-20.54-23.46-19.4Z"/>
  <path class="st0" d="M99.47,23.34c4.31-.49,7.98,2.59,8.54,6.63.59,4.31-2.46,8.15-6.53,8.73-4.41.64-8.27-2.41-8.83-6.63s2.44-8.23,6.82-8.73Z"/>
</svg>