<?xml version="1.0" encoding="UTF-8"?>
<svg id="Capa_1" xmlns="http://www.w3.org/2000/svg" version="1.1" viewBox="0 0 131.1 131.11">
  <!-- Generator: Adobe Illustrator 30.1.0, SVG Export Plug-In . SVG Version: 2.1.1 Build 136)  -->
  <defs>
    <style>
      .st0 {
        fill: #fff;
      }
    </style>
  </defs>
  <path class="st0" d="M119.34-.46c.08.13.24.25.5.31,5.94,1.23,10.05,5.81,11.27,11.88v106.74c-1.29,6.51-5.86,11.08-12.39,12.18H12.19c-6.14-1.25-10.76-5.46-11.93-11.48-.03-.16-.22-.24-.26-.29V11.32c.15-.08.24-.24.3-.51C1.48,5.27,5.73,1.03,11.27-.16c.27-.06.43-.16.51-.3h107.56ZM110.19,110.68l-36.13-52.62,33.09-38.47c-2.6-.37-5.11-.16-7.75-.12l-28.83,33.54-23.1-33.63-26.5.1,34.81,50.73-34.77,40.42,7.75.1,30.52-35.44,24.41,35.48,26.51-.08Z"/>
  <polygon class="st0" points="99.38 104.95 87.33 105.06 31.53 25.27 43.72 25.34 99.38 104.95"/>
</svg>