<?xml version="1.0" encoding="UTF-8"?>
<svg id="Capa_1" xmlns="http://www.w3.org/2000/svg" version="1.1" viewBox="0 0 131.1 131.11">
  <!-- Generator: Adobe Illustrator 30.1.0, SVG Export Plug-In . SVG Version: 2.1.1 Build 136)  -->
  <defs>
    <style>
      .st0 {
        fill: #fff;
      }
    </style>
  </defs>
  <path class="st0" d="M130.93,43.82v39.88c-.3.36-.35.83-.27,1.24.21,1.06-.17,1.89-.3,2.86-1.29,9.21-4.1,17.22-13.48,20.9-6.05,2.38-13.81,2.89-20.39,2.89h-61.98c-6.88,0-14.92-.81-21.13-3.69-5.25-2.43-9.12-6.67-10.91-12.24-1.21-3.79-2.24-7.73-2.25-11.89l-.05-41.31c0-2.62.73-5.15,1.27-7.59.9-4.04,3.08-7.67,6.43-10.01,6.75-4.72,18.05-5.34,26.2-5.34h62.68c5.22,0,10.16.28,15.25,1.15,7.19,1.22,13.62,4.14,16.49,11.23,1.02,2.54,1.5,5.1,1.91,7.83.15.96.44,1.82.27,2.85-.08.49,0,.98.27,1.25ZM84,68.7c1.6-.84,2.3-2.31,2.3-3.79s-.77-2.94-2.24-3.7l-27.37-14.22c-1.43-.74-2.97-.64-4.26.17-1.13.7-1.97,1.98-1.97,3.6v28.32c0,1.67.76,3.02,2.01,3.77s2.74.91,4.14.17l27.39-14.32Z"/>
</svg>