<svg id="ZBK_Pagos-07" xmlns="http://www.w3.org/2000/svg" width="146.716" height="26.378" viewBox="0 0 146.716 26.378">
  <g id="Grupo_74" data-name="Grupo 74" transform="translate(0 5.461)">
    <path id="Trazado_65" data-name="Trazado 65" d="M18.254,40.273,11.96,55.291H7.85l-3.1-11.974a1.668,1.668,0,0,0-.928-1.324A16.481,16.481,0,0,0,0,40.71l.1-.437H6.7A1.8,1.8,0,0,1,8.492,41.8l1.638,8.7,4.041-10.226Zm16.1,10.117c.014-3.959-5.489-4.178-5.448-5.953.014-.532.532-1.106,1.652-1.256a7.489,7.489,0,0,1,3.837.669l.683-3.181A10.381,10.381,0,0,0,31.443,40c-3.837,0-6.54,2.048-6.567,4.97-.027,2.157,1.925,3.372,3.4,4.082,1.515.737,2.021,1.215,2.021,1.87-.014,1.01-1.2,1.447-2.321,1.475a8.1,8.1,0,0,1-3.987-.956l-.71,3.29a12.05,12.05,0,0,0,4.314.806c4.069,0,6.745-2.021,6.758-5.147M44.5,55.305h3.591l-3.14-15.018H41.628a1.757,1.757,0,0,0-1.652,1.106l-5.83,13.912h4.082l.806-2.239h4.983ZM40.154,49.98,42.2,44.342l1.174,5.639ZM23.811,40.273,20.6,55.291H16.711L19.92,40.273Z" transform="translate(0 -40)" fill="#262c5b"/>
  </g>
  <g id="Grupo_77" data-name="Grupo 77" transform="translate(67.801 2.389)">
    <g id="Grupo_76" data-name="Grupo 76">
      <g id="Grupo_75" data-name="Grupo 75" transform="translate(1.556 19.947)">
        <path id="XMLID_00000000915281767286234220000012150421520489702797_" d="M511.946,167.082v-1.556a.918.918,0,0,0-.983-.983.991.991,0,0,0-.874.437.9.9,0,0,0-.819-.437.818.818,0,0,0-.724.369v-.3H508V167.1h.546v-1.379a.573.573,0,0,1,.614-.655c.355,0,.546.232.546.655V167.1h.546v-1.379a.579.579,0,0,1,.614-.655c.369,0,.546.232.546.655V167.1l.533-.014Zm8.069-2.485h-.888v-.751h-.546v.751h-.505v.492h.505v1.133c0,.573.218.915.86.915a1.284,1.284,0,0,0,.683-.191l-.15-.464a.986.986,0,0,1-.478.137c-.273,0-.355-.164-.355-.41v-1.12h.887V164.6Zm4.615-.055a.73.73,0,0,0-.655.369v-.3h-.532V167.1h.546V165.7c0-.41.178-.642.532-.642a.8.8,0,0,1,.341.068l.164-.505a1.14,1.14,0,0,0-.4-.082Zm-6.977.259a1.911,1.911,0,0,0-1.01-.259c-.628,0-1.037.3-1.037.792,0,.41.3.655.86.737l.259.041c.3.041.437.123.437.259,0,.191-.191.3-.56.3a1.4,1.4,0,0,1-.833-.259l-.259.423a1.8,1.8,0,0,0,1.079.328c.71,0,1.133-.341,1.133-.806,0-.437-.328-.669-.86-.737l-.259-.041c-.232-.027-.423-.082-.423-.246s.177-.287.478-.287a1.6,1.6,0,0,1,.778.218Zm14.486-.259a.73.73,0,0,0-.655.369v-.3h-.532V167.1h.546V165.7c0-.41.178-.642.533-.642a.8.8,0,0,1,.341.068l.164-.505a1.14,1.14,0,0,0-.4-.082Zm-6.963,1.3a1.36,1.36,0,0,0,2.212,1.01l-.259-.437a1.053,1.053,0,0,1-.655.218.793.793,0,0,1,0-1.584,1.177,1.177,0,0,1,.655.218l.259-.437a1.36,1.36,0,0,0-2.212,1.01Zm5.052,0V164.6h-.546v.3a.952.952,0,0,0-.778-.369,1.313,1.313,0,0,0,0,2.621.9.9,0,0,0,.778-.369v.3h.546Zm-2.007,0a.752.752,0,1,1,.751.792.742.742,0,0,1-.751-.792Zm-6.526-1.3a1.312,1.312,0,0,0,.027,2.621,1.6,1.6,0,0,0,1.024-.341l-.259-.4a1.2,1.2,0,0,1-.724.259.685.685,0,0,1-.737-.614h1.843c0-.068.014-.137.014-.2a1.2,1.2,0,0,0-1.188-1.324Zm0,.478a.619.619,0,0,1,.628.6h-1.283a.636.636,0,0,1,.655-.6Zm13.557.819V163.6h-.546v1.3a.952.952,0,0,0-.778-.369,1.313,1.313,0,0,0,0,2.621.9.9,0,0,0,.778-.369v.3h.546Zm-2.021,0a.752.752,0,1,1,.751.792.742.742,0,0,1-.751-.792Zm-18.24,0V164.6h-.546v.3a.953.953,0,0,0-.778-.369,1.313,1.313,0,0,0,0,2.621.9.9,0,0,0,.778-.369v.3h.546Zm-2.007,0a.752.752,0,1,1,.751.792A.728.728,0,0,1,512.983,165.839Zm23.169.887c.041,0,.068.014.1.014a.283.283,0,0,1,.082.055.174.174,0,0,1,.055.082.231.231,0,0,1,.014.1c0,.041-.014.068-.014.1a.251.251,0,0,1-.137.137.232.232,0,0,1-.1.014c-.027,0-.068-.014-.1-.014a.288.288,0,0,1-.082-.055.174.174,0,0,1-.055-.082.231.231,0,0,1-.014-.1c0-.041.014-.068.014-.1a.251.251,0,0,1,.136-.137C536.084,166.74,536.112,166.727,536.153,166.727Zm0,.437a.173.173,0,0,0,.082-.014.187.187,0,0,0,.055-.041c.014-.014.027-.041.041-.055a.251.251,0,0,0,0-.164.187.187,0,0,0-.041-.055c-.014-.014-.041-.027-.055-.041a.252.252,0,0,0-.164,0c-.027.014-.041.027-.068.041s-.027.041-.041.055-.014.041-.014.082a.148.148,0,0,0,.014.082.186.186,0,0,0,.041.055.3.3,0,0,0,.068.041A.173.173,0,0,0,536.153,167.163Zm.014-.3a.6.6,0,0,1,.068.014.071.071,0,0,1,.027.055.137.137,0,0,1-.014.041c-.014.014-.027.014-.055.027l.082.082h-.055l-.068-.082h-.027v.082h-.055v-.232l.1.014Zm-.055.041v.055h.055c.014,0,.027,0,.027-.014s.014-.014.014-.027,0-.014-.014-.027-.014-.014-.027-.014l-.055.027Z" transform="translate(-508 -163.6)"/>
      </g>
      <g id="XMLID_00000116209209971272418930000001841283511156038537_">
        <rect id="Rectángulo_80" data-name="Rectángulo 80" width="8.178" height="14.704" transform="translate(11.032 2.021)" fill="#ec6d37"/>
        <path id="XMLID_00000123405273690079458160000014906882154820202662_" d="M508.151,26.966a9.347,9.347,0,0,1,3.577-7.359,9.352,9.352,0,1,0,0,14.691A9.293,9.293,0,0,1,508.151,26.966Z" transform="translate(-496.6 -17.586)" fill="#e73e36"/>
        <path id="Trazado_66" data-name="Trazado 66" d="M710.491,126.355v-.3h.123V126H710.3v.055h.123v.3Zm.6,0V126H711l-.109.246-.109-.246h-.1v.369h.068V126.1l.109.232h.068l.109-.232v.273h.055Z" transform="translate(-681.124 -111.186)"/>
        <path id="Trazado_67" data-name="Trazado 67" d="M622.628,26.88a9.358,9.358,0,0,1-9.352,9.352,9.262,9.262,0,0,1-5.775-2.007,9.358,9.358,0,0,0,0-14.718,9.291,9.291,0,0,1,5.775-2.007A9.39,9.39,0,0,1,622.628,26.88Z" transform="translate(-592.359 -17.5)" fill="#f5a13b"/>
      </g>
    </g>
  </g>
  <g id="Grupo_78" data-name="Grupo 78" transform="translate(120.338)">
    <path id="logo-blue-box-small-45-9x45-a_00000150796499070511890510000009249218367169858450_" d="M907.864,26.364H881.5V0h26.364Z" transform="translate(-881.486)" fill="#fff"/>
    <path id="path5_00000152947095981215240120000006447197793727788422_" d="M907.864,14.367V.1H881.5V26.464h26.364V18.777c-.055-.014,0-4.41,0-4.41" transform="translate(-881.486 -0.086)" fill="#266cb3"/>
    <path id="path7_00000057865540709950345540000014037832121245607604_" d="M904.728,64.442h1.993V59.8h-2.171v.642l-.41-.642h-1.884v.819L901.9,59.8h-3.468c-.123,0-.232.055-.355.055a.488.488,0,0,0-.287.123,1.806,1.806,0,0,0-.287.123v-.287H887.58l-.287.765-.287-.765h-2.348v.819l-.355-.819h-1.884l-.819,1.993v2.649h1.352l.232-.642h.464l.232.642h10.335v-.587l.41.587h2.881V64.1c.054.055.177.055.232.123s.177.055.232.123a.807.807,0,0,0,.355.055h2.116l.232-.642h.464l.232.642h2.881v-.587Zm3.222,5.871V65.971H891.8l-.41.587-.41-.587h-4.7v4.642h4.7l.41-.587.41.587h2.935v-1h-.109a2.689,2.689,0,0,0,1.051-.177v1.229h2.116v-.587l.41.587h8.752A4.292,4.292,0,0,0,907.95,70.313Z" transform="translate(-881.573 -51.635)" fill="#fff"/>
    <path id="path9_00000155849455141720897590000012990438739699975841_" d="M906.781,74.129H905.2v.642h1.529a.968.968,0,0,0,1.051-1,.828.828,0,0,0-.942-.887h-.71a.272.272,0,0,1-.287-.287.28.28,0,0,1,.287-.287h1.352l.287-.642h-1.57a.958.958,0,0,0-1.051.942.828.828,0,0,0,.942.887h.71a.272.272,0,0,1,.287.287c.055.218-.068.341-.3.341Zm-2.881,0h-1.584v.642h1.529a.968.968,0,0,0,1.051-1,.828.828,0,0,0-.942-.887h-.71a.272.272,0,0,1-.287-.287.28.28,0,0,1,.287-.287H904.6l.287-.642H903.3a.958.958,0,0,0-1.051.942.828.828,0,0,0,.942.887h.71a.272.272,0,0,1,.287.287c.068.218-.109.341-.287.341Zm-2.048-1.884V71.6h-2.471v3.113h2.471v-.642h-1.761v-.642H901.8v-.642h-1.707V72.2h1.761v.041Zm-4,0a.359.359,0,1,1,0,.71h-.887V72.19Zm-.874,1.352h.355l.942,1.12h.887l-1.052-1.174a.936.936,0,0,0,.819-.942.968.968,0,0,0-1.051-1h-1.638v3.113h.71Zm-1.884-.942a.373.373,0,0,1-.41.41h-.942v-.819h.887a.418.418,0,0,1,.464.41ZM893.046,71.6v3.113h.71V73.665h.942a1.037,1.037,0,0,0,1.12-1.051,1.011,1.011,0,0,0-1.052-1.051Zm-1.065,3.113h.887l-1.229-1.584,1.229-1.529h-.887l-.765,1-.764-1h-.887l1.229,1.529-1.229,1.529h.887l.764-1Zm-2.635-2.471V71.6h-2.471v3.113h2.471v-.642h-1.761v-.642h1.707v-.642h-1.707V72.2h1.761Zm14.267-5.516,1.229,1.884h.887V65.5h-.71v2.062l-.178-.287-1.119-1.761h-.942v3.113h.71V66.5Zm-3.058-.055.232-.642.232.642.287.71h-1.051Zm1.229,1.939h.765L901.2,65.5h-.942L898.9,68.613h.765l.287-.642h1.529Zm-3.276,0,.286-.642h-.177a.787.787,0,0,1-.819-.887v-.055a.787.787,0,0,1,.819-.887h.765V65.5h-.819a1.4,1.4,0,0,0-1.461,1.529v.055a1.355,1.355,0,0,0,1.406,1.529Zm-2.649,0h.71V65.555h-.71Zm-1.529-2.471a.359.359,0,1,1,0,.71h-.887v-.765Zm-.874,1.352h.355l.942,1.12h.887l-1.051-1.174a.936.936,0,0,0,.819-.942.968.968,0,0,0-1.051-1h-1.638v3.113h.71Zm-1.3-1.352V65.5h-2.471v3.113h2.471v-.642H890.4V67.33H892.1v-.642H890.4V66.1h1.761Zm-5.338,2.471h.642l.887-2.526v2.526h.71V65.5h-1.174l-.71,2.116-.71-2.116h-1.174v3.113H886V66.087ZM883,66.674l.232-.642.232.642.287.71h-1.038Zm1.229,1.939h.765L883.639,65.5h-.887L881.4,68.613h.765l.287-.642h1.529Z" transform="translate(-881.4 -56.557)" fill="#266cb3"/>
  </g>
</svg>
